<?xml version="1.0" standalone="no"?>
<svg xmlns:xlink="http://www.w3.org/1999/xlink" id="wave" style="transform:rotate(180deg); transition: 0.3s" viewBox="0 0 1440 100" version="1.1" xmlns="http://www.w3.org/2000/svg"><defs><linearGradient id="sw-gradient-0" x1="0" x2="0" y1="1" y2="0"><stop stop-color="rgba(255, 249, 234, 1)" offset="0%"/><stop stop-color="rgba(255, 249, 234, 1)" offset="100%"/></linearGradient></defs><path style="transform:translate(0, 0px); opacity:1" fill="url(#sw-gradient-0)" d="M0,30L60,33.3C120,37,240,43,360,45C480,47,600,43,720,36.7C840,30,960,20,1080,28.3C1200,37,1320,63,1440,61.7C1560,60,1680,30,1800,21.7C1920,13,2040,27,2160,40C2280,53,2400,67,2520,70C2640,73,2760,67,2880,53.3C3000,40,3120,20,3240,23.3C3360,27,3480,53,3600,61.7C3720,70,3840,60,3960,46.7C4080,33,4200,17,4320,10C4440,3,4560,7,4680,20C4800,33,4920,57,5040,55C5160,53,5280,27,5400,28.3C5520,30,5640,60,5760,70C5880,80,6000,70,6120,63.3C6240,57,6360,53,6480,56.7C6600,60,6720,70,6840,61.7C6960,53,7080,27,7200,23.3C7320,20,7440,40,7560,50C7680,60,7800,60,7920,61.7C8040,63,8160,67,8280,61.7C8400,57,8520,43,8580,36.7L8640,30L8640,100L8580,100C8520,100,8400,100,8280,100C8160,100,8040,100,7920,100C7800,100,7680,100,7560,100C7440,100,7320,100,7200,100C7080,100,6960,100,6840,100C6720,100,6600,100,6480,100C6360,100,6240,100,6120,100C6000,100,5880,100,5760,100C5640,100,5520,100,5400,100C5280,100,5160,100,5040,100C4920,100,4800,100,4680,100C4560,100,4440,100,4320,100C4200,100,4080,100,3960,100C3840,100,3720,100,3600,100C3480,100,3360,100,3240,100C3120,100,3000,100,2880,100C2760,100,2640,100,2520,100C2400,100,2280,100,2160,100C2040,100,1920,100,1800,100C1680,100,1560,100,1440,100C1320,100,1200,100,1080,100C960,100,840,100,720,100C600,100,480,100,360,100C240,100,120,100,60,100L0,100Z"/></svg>